<svg width="1900" height="585" viewBox="0 0 1900 585" fill="none" xmlns="http://www.w3.org/2000/svg">
<g clip-path="url(#clip0_423_34)">
<path d="M461.3 93.0498C461.3 93.0498 457.749 142.54 431.921 154.528C429.274 155.757 427.879 159.239 429.278 161.801C435.356 172.933 445.837 199.786 423.532 224.812C421.963 226.573 422.027 229.328 423.655 231.034C432.178 239.971 452.498 267.035 413.5 290.5" stroke="#225CED" stroke-width="20" stroke-miterlimit="10" stroke-linecap="round"/>
<path d="M461.3 439.84C461.3 439.84 473.805 414.372 432.645 393.533C430.868 392.633 429.911 390.581 430.283 388.624C431.555 381.916 433.214 365.997 425.5 348" stroke="#225CED" stroke-width="20" stroke-miterlimit="10" stroke-linecap="round"/>
<path d="M707.66 178.89L418.14 78.01C409.95 75.16 400.91 78.5 396.47 85.96C322.93 209.61 324.83 329.84 396.26 446.94C400.83 454.44 410.04 457.7 418.33 454.81L598.99 391.86C600.44 391.36 601.88 392.61 601.58 394.11C598.72 408.11 590.73 460 631.35 451.7C632.58 451.45 633.73 452.38 633.73 453.63V484.79C633.73 484.79 633 507.21 654.86 508.06C654.98 508.06 655.09 508.06 655.21 508.04C657.22 507.78 675.3 504.95 675.3 486.03L675.498 366.619C675.499 365.769 676.037 365.013 676.84 364.733L869.7 297.54C899.16 287.28 899.16 245.61 869.7 235.35L776.29 202.8" stroke="#225CED" stroke-width="20" stroke-miterlimit="10" stroke-linecap="round"/>
<circle cx="516.5" cy="179.5" r="38.5" fill="#225CED"/>
<circle cx="602.5" cy="308.5" r="38.5" fill="#225CED"/>
<path d="M501.061 292.199C504.094 293.95 506.752 296.281 508.883 299.06C511.015 301.838 512.579 305.008 513.486 308.391C514.392 311.774 514.623 315.302 514.166 318.774C513.971 320.256 513.652 321.716 513.214 323.138C512.239 326.305 508.495 327.283 505.625 325.627L502.161 323.627C499.292 321.97 495.622 322.953 493.965 325.823L489.299 333.905C487.642 336.775 483.972 337.758 481.103 336.101L473.597 331.768C470.727 330.111 469.744 326.442 471.401 323.572L476.067 315.489C477.724 312.619 476.741 308.95 473.871 307.293L469.83 304.96C466.96 303.303 465.935 299.571 468.19 297.143C469.203 296.053 470.308 295.047 471.494 294.137C474.272 292.005 477.444 290.441 480.826 289.535C484.209 288.629 487.737 288.398 491.209 288.855C494.68 289.312 498.028 290.448 501.061 292.199Z" fill="#225CED"/>
<path d="M701.531 240.392C704.007 237.916 706.947 235.952 710.182 234.612C713.418 233.272 716.885 232.582 720.387 232.582C723.889 232.582 727.356 233.272 730.592 234.612C731.973 235.184 733.301 235.87 734.561 236.661C737.368 238.422 737.344 242.292 735.001 244.635L732.172 247.463C729.829 249.806 729.829 253.605 732.172 255.948L738.772 262.548C741.115 264.891 741.115 268.69 738.772 271.033L732.643 277.162C730.3 279.505 726.501 279.505 724.158 277.162L717.559 270.562C715.216 268.219 711.417 268.219 709.073 270.562L705.774 273.862C703.431 276.205 699.561 276.229 697.799 273.422C697.008 272.162 696.322 270.835 695.75 269.453C694.41 266.218 693.721 262.75 693.721 259.248C693.721 255.746 694.411 252.278 695.751 249.043C697.091 245.808 699.055 242.868 701.531 240.392Z" fill="#225CED"/>
<path d="M628.311 233.192C625.475 235.247 622.262 236.722 618.855 237.535C615.449 238.348 611.916 238.483 608.458 237.93C605 237.378 601.685 236.15 598.702 234.316C597.428 233.533 596.225 232.646 595.105 231.666C592.611 229.485 593.245 225.667 595.929 223.723L599.168 221.376C601.851 219.432 602.451 215.68 600.507 212.997L595.031 205.439C593.087 202.756 593.686 199.004 596.369 197.06L603.388 191.975C606.071 190.031 609.823 190.63 611.767 193.314L617.243 200.871C619.187 203.555 622.938 204.154 625.622 202.21L629.4 199.472C632.084 197.528 635.909 198.115 637.206 201.164C637.788 202.534 638.256 203.953 638.603 205.407C639.416 208.813 639.55 212.346 638.997 215.805C638.445 219.263 637.216 222.578 635.383 225.561C633.549 228.544 631.146 231.138 628.311 233.192Z" fill="#225CED"/>
</g>
<circle cx="1316.06" cy="179.5" r="38.5" fill="#225CED"/>
<circle cx="1402.06" cy="308.5" r="38.5" fill="#225CED"/>
<path d="M1291.71 288.471C1295.13 288.807 1298.4 289.833 1301.34 291.491C1304.28 293.149 1306.82 295.406 1308.83 298.134C1310.84 300.862 1312.27 304.007 1313.04 307.389C1313.81 310.772 1313.91 314.326 1313.33 317.848C1313.11 319.206 1312.78 320.548 1312.36 321.864C1311.31 325.173 1306.89 326.357 1303.77 324.595L1302.16 323.69C1299.04 321.927 1294.66 323.098 1292.84 326.184L1288.65 333.283C1286.83 336.368 1282.45 337.54 1279.32 335.777L1272.51 331.93C1269.91 330.46 1269.09 327.434 1270.61 324.862L1276.36 315.125C1277.88 312.553 1277.07 309.526 1274.46 308.057L1269.47 305.238C1266.86 303.769 1265.99 300.696 1267.99 298.372C1269.2 296.967 1270.54 295.676 1272 294.52C1274.83 292.267 1278.02 290.573 1281.41 289.535C1284.79 288.497 1288.29 288.135 1291.71 288.471Z" fill="#225CED"/>
<path d="M1501.09 240.392C1503.56 237.916 1506.5 235.951 1509.74 234.611C1512.97 233.271 1516.44 232.581 1519.94 232.581C1523.44 232.581 1526.91 233.271 1530.15 234.611C1531.82 235.303 1533.41 236.161 1534.9 237.17C1537.36 238.838 1537.31 241.88 1535.27 243.917L1531.01 248.18C1528.97 250.217 1528.97 253.194 1531.01 255.23L1539.04 263.265C1541.08 265.302 1541.08 268.279 1539.04 270.315L1532.92 276.444C1530.32 279.036 1525.59 279.036 1523 276.444L1517.83 271.279C1515.24 268.687 1510.5 268.687 1507.91 271.279L1506.05 273.143C1503.45 275.735 1498.68 275.719 1496.9 272.677C1496.3 271.641 1495.77 270.565 1495.31 269.453C1493.97 266.217 1493.28 262.75 1493.28 259.248C1493.28 255.746 1493.97 252.278 1495.31 249.043C1496.65 245.807 1498.61 242.868 1501.09 240.392Z" fill="#225CED"/>
<path d="M1428.35 233.669C1425.57 235.661 1422.41 237.062 1419.04 237.794C1415.67 238.525 1412.15 238.571 1408.69 237.93C1405.23 237.289 1401.9 235.974 1398.88 234.058C1397.31 233.062 1395.85 231.913 1394.5 230.633C1392.32 228.559 1392.86 225.509 1395.23 223.803L1399.69 220.598C1402.07 218.893 1402.55 215.895 1400.82 213.536L1394.06 204.276C1392.34 201.918 1392.82 198.92 1395.19 197.214L1401.76 192.491C1404.72 190.37 1409.32 191.103 1411.46 194.037L1416.06 200.331C1418.2 203.265 1422.8 203.998 1425.75 201.877L1427.72 200.465C1430.67 198.344 1435.31 199.092 1436.66 202.33C1437.15 203.533 1437.57 204.77 1437.9 206.03C1438.79 209.47 1439.02 213.02 1438.55 216.478C1438.09 219.936 1436.95 223.234 1435.2 226.184C1433.45 229.133 1431.12 231.677 1428.35 233.669Z" fill="#225CED"/>
<path d="M1263 143.5L1245.86 126.358C1242.11 122.607 1237.02 120.5 1231.72 120.5H1205.5" stroke="#5898F9" stroke-width="4" stroke-linecap="square"/>
<path d="M1426 363L1435.66 382.778C1439.02 389.645 1445.99 394 1453.63 394H1479" stroke="#5898F9" stroke-width="4" stroke-linecap="square"/>
<path d="M1605.72 205.489L1579.59 206.529C1574.25 206.742 1569.22 209.08 1565.62 213.024L1546 234.5" stroke="#5898F9" stroke-width="4" stroke-linecap="square"/>
<path d="M1164.5 287.5L1200.95 313.32C1204.33 315.714 1208.37 317 1212.51 317L1244 317" stroke="#5898F9" stroke-width="4" stroke-linecap="square"/>
<path d="M1150.65 148.975C1146.32 148.975 1142.33 148.226 1138.68 146.729C1135.07 145.199 1132.12 143.018 1129.85 140.186C1127.57 137.321 1126.28 133.919 1125.99 129.98L1125.94 129.297H1134.44L1134.53 129.883C1134.89 131.966 1135.66 133.887 1136.83 135.645C1138.03 137.37 1139.76 138.753 1142 139.795C1144.25 140.837 1147.16 141.357 1150.74 141.357C1154.42 141.357 1157.37 140.869 1159.58 139.893C1161.83 138.883 1163.46 137.533 1164.46 135.84C1165.47 134.147 1165.98 132.275 1165.98 130.225V130.176C1165.98 127.507 1165.13 125.293 1163.44 123.535C1161.75 121.777 1158.49 120.312 1153.67 119.141L1146.4 117.383C1142.36 116.406 1138.94 115.137 1136.14 113.574C1133.38 111.979 1131.28 110.026 1129.85 107.715C1128.41 105.371 1127.7 102.588 1127.7 99.3652V99.3164C1127.7 95.5078 1128.69 92.2038 1130.68 89.4043C1132.69 86.6048 1135.43 84.4401 1138.88 82.9102C1142.36 81.3477 1146.28 80.5664 1150.65 80.5664C1154.85 80.5664 1158.64 81.3477 1162.02 82.9102C1165.44 84.4401 1168.19 86.6048 1170.28 89.4043C1172.36 92.1712 1173.51 95.4102 1173.74 99.1211L1173.79 99.8535H1165.29L1165.25 99.4141C1164.99 97.0703 1164.2 95.0684 1162.9 93.4082C1161.6 91.7155 1159.89 90.4297 1157.78 89.5508C1155.69 88.6393 1153.32 88.1836 1150.65 88.1836C1147.49 88.1836 1144.84 88.7044 1142.69 89.7461C1140.54 90.7878 1138.91 92.1224 1137.8 93.75C1136.73 95.3776 1136.19 97.0866 1136.19 98.877V98.9258C1136.19 100.521 1136.55 101.986 1137.27 103.32C1138.02 104.622 1139.22 105.794 1140.88 106.836C1142.57 107.845 1144.82 108.691 1147.62 109.375L1154.89 111.133C1161.18 112.63 1166.01 114.811 1169.4 117.676C1172.78 120.508 1174.47 124.495 1174.47 129.639V129.688C1174.47 133.887 1173.37 137.419 1171.15 140.283C1168.94 143.148 1166.03 145.312 1162.41 146.777C1158.8 148.242 1154.88 148.975 1150.65 148.975ZM1147.52 157.08V72.4609H1153.38V157.08H1147.52Z" fill="#225CED"/>
<path d="M1522.62 427.18C1519.15 427.18 1515.96 426.581 1513.05 425.383C1510.16 424.159 1507.8 422.414 1505.98 420.148C1504.15 417.857 1503.12 415.135 1502.89 411.984L1502.85 411.438H1509.65L1509.73 411.906C1510.01 413.573 1510.62 415.109 1511.56 416.516C1512.53 417.896 1513.91 419.003 1515.7 419.836C1517.5 420.669 1519.83 421.086 1522.7 421.086C1525.64 421.086 1527.99 420.695 1529.77 419.914C1531.56 419.107 1532.86 418.026 1533.67 416.672C1534.48 415.318 1534.88 413.82 1534.88 412.18V412.141C1534.88 410.005 1534.21 408.234 1532.85 406.828C1531.5 405.422 1528.89 404.25 1525.04 403.312L1519.22 401.906C1515.99 401.125 1513.26 400.109 1511.02 398.859C1508.8 397.583 1507.12 396.021 1505.98 394.172C1504.83 392.297 1504.26 390.07 1504.26 387.492V387.453C1504.26 384.406 1505.05 381.763 1506.64 379.523C1508.26 377.284 1510.44 375.552 1513.2 374.328C1515.99 373.078 1519.13 372.453 1522.62 372.453C1525.98 372.453 1529.01 373.078 1531.72 374.328C1534.45 375.552 1536.65 377.284 1538.32 379.523C1539.99 381.737 1540.91 384.328 1541.09 387.297L1541.13 387.883H1534.34L1534.3 387.531C1534.09 385.656 1533.46 384.055 1532.42 382.727C1531.38 381.372 1530.01 380.344 1528.32 379.641C1526.65 378.911 1524.75 378.547 1522.62 378.547C1520.09 378.547 1517.97 378.964 1516.25 379.797C1514.53 380.63 1513.23 381.698 1512.34 383C1511.48 384.302 1511.05 385.669 1511.05 387.102V387.141C1511.05 388.417 1511.34 389.589 1511.91 390.656C1512.51 391.698 1513.48 392.635 1514.8 393.469C1516.16 394.276 1517.96 394.953 1520.2 395.5L1526.02 396.906C1531.04 398.104 1534.91 399.849 1537.62 402.141C1540.33 404.406 1541.68 407.596 1541.68 411.711V411.75C1541.68 415.109 1540.79 417.935 1539.02 420.227C1537.25 422.518 1534.92 424.25 1532.03 425.422C1529.14 426.594 1526 427.18 1522.62 427.18ZM1520.12 433.664V365.969H1524.8V433.664H1520.12Z" fill="#225CED"/>
<path d="M1089.65 148.975C1085.32 148.975 1081.33 148.226 1077.68 146.729C1074.07 145.199 1071.12 143.018 1068.85 140.186C1066.57 137.321 1065.28 133.919 1064.99 129.98L1064.94 129.297H1073.44L1073.53 129.883C1073.89 131.966 1074.66 133.887 1075.83 135.645C1077.03 137.37 1078.76 138.753 1081 139.795C1083.25 140.837 1086.16 141.357 1089.74 141.357C1093.42 141.357 1096.37 140.869 1098.58 139.893C1100.83 138.883 1102.46 137.533 1103.46 135.84C1104.47 134.147 1104.98 132.275 1104.98 130.225V130.176C1104.98 127.507 1104.13 125.293 1102.44 123.535C1100.75 121.777 1097.49 120.312 1092.67 119.141L1085.4 117.383C1081.36 116.406 1077.94 115.137 1075.14 113.574C1072.38 111.979 1070.28 110.026 1068.85 107.715C1067.41 105.371 1066.7 102.588 1066.7 99.3652V99.3164C1066.7 95.5078 1067.69 92.2038 1069.68 89.4043C1071.69 86.6048 1074.43 84.4401 1077.88 82.9102C1081.36 81.3477 1085.28 80.5664 1089.65 80.5664C1093.85 80.5664 1097.64 81.3477 1101.02 82.9102C1104.44 84.4401 1107.19 86.6048 1109.28 89.4043C1111.36 92.1712 1112.51 95.4102 1112.74 99.1211L1112.79 99.8535H1104.29L1104.25 99.4141C1103.99 97.0703 1103.2 95.0684 1101.9 93.4082C1100.6 91.7155 1098.89 90.4297 1096.78 89.5508C1094.69 88.6393 1092.32 88.1836 1089.65 88.1836C1086.49 88.1836 1083.84 88.7044 1081.69 89.7461C1079.54 90.7878 1077.91 92.1224 1076.8 93.75C1075.73 95.3776 1075.19 97.0866 1075.19 98.877V98.9258C1075.19 100.521 1075.55 101.986 1076.27 103.32C1077.02 104.622 1078.22 105.794 1079.88 106.836C1081.57 107.845 1083.82 108.691 1086.62 109.375L1093.89 111.133C1100.18 112.63 1105.01 114.811 1108.4 117.676C1111.78 120.508 1113.47 124.495 1113.47 129.639V129.688C1113.47 133.887 1112.37 137.419 1110.15 140.283C1107.94 143.148 1105.03 145.312 1101.41 146.777C1097.8 148.242 1093.88 148.975 1089.65 148.975ZM1086.52 157.08V72.4609H1092.38V157.08H1086.52Z" fill="#225CED"/>
<path d="M1028.65 148.975C1024.32 148.975 1020.33 148.226 1016.68 146.729C1013.07 145.199 1010.12 143.018 1007.85 140.186C1005.57 137.321 1004.28 133.919 1003.99 129.98L1003.94 129.297H1012.44L1012.53 129.883C1012.89 131.966 1013.66 133.887 1014.83 135.645C1016.03 137.37 1017.76 138.753 1020 139.795C1022.25 140.837 1025.16 141.357 1028.74 141.357C1032.42 141.357 1035.37 140.869 1037.58 139.893C1039.83 138.883 1041.46 137.533 1042.46 135.84C1043.47 134.147 1043.98 132.275 1043.98 130.225V130.176C1043.98 127.507 1043.13 125.293 1041.44 123.535C1039.75 121.777 1036.49 120.312 1031.67 119.141L1024.4 117.383C1020.36 116.406 1016.94 115.137 1014.14 113.574C1011.38 111.979 1009.28 110.026 1007.85 107.715C1006.41 105.371 1005.7 102.588 1005.7 99.3652V99.3164C1005.7 95.5078 1006.69 92.2038 1008.68 89.4043C1010.69 86.6048 1013.43 84.4401 1016.88 82.9102C1020.36 81.3477 1024.28 80.5664 1028.65 80.5664C1032.85 80.5664 1036.64 81.3477 1040.02 82.9102C1043.44 84.4401 1046.19 86.6048 1048.28 89.4043C1050.36 92.1712 1051.51 95.4102 1051.74 99.1211L1051.79 99.8535H1043.29L1043.25 99.4141C1042.99 97.0703 1042.2 95.0684 1040.9 93.4082C1039.6 91.7155 1037.89 90.4297 1035.78 89.5508C1033.69 88.6393 1031.32 88.1836 1028.65 88.1836C1025.49 88.1836 1022.84 88.7044 1020.69 89.7461C1018.54 90.7878 1016.91 92.1224 1015.8 93.75C1014.73 95.3776 1014.19 97.0866 1014.19 98.877V98.9258C1014.19 100.521 1014.55 101.986 1015.27 103.32C1016.02 104.622 1017.22 105.794 1018.88 106.836C1020.57 107.845 1022.82 108.691 1025.62 109.375L1032.89 111.133C1039.18 112.63 1044.01 114.811 1047.4 117.676C1050.78 120.508 1052.47 124.495 1052.47 129.639V129.688C1052.47 133.887 1051.37 137.419 1049.15 140.283C1046.94 143.148 1044.03 145.312 1040.41 146.777C1036.8 148.242 1032.88 148.975 1028.65 148.975ZM1025.52 157.08V72.4609H1031.38V157.08H1025.52Z" fill="#225CED"/>
<path d="M1634.41 212.672C1633.02 212.672 1631.75 212.432 1630.58 211.953C1629.42 211.464 1628.48 210.766 1627.75 209.859C1627.02 208.943 1626.61 207.854 1626.52 206.594L1626.5 206.375H1629.22L1629.25 206.562C1629.37 207.229 1629.61 207.844 1629.99 208.406C1630.37 208.958 1630.92 209.401 1631.64 209.734C1632.36 210.068 1633.29 210.234 1634.44 210.234C1635.62 210.234 1636.56 210.078 1637.27 209.766C1637.99 209.443 1638.51 209.01 1638.83 208.469C1639.15 207.927 1639.31 207.328 1639.31 206.672V206.656C1639.31 205.802 1639.04 205.094 1638.5 204.531C1637.96 203.969 1636.92 203.5 1635.38 203.125L1633.05 202.562C1631.76 202.25 1630.66 201.844 1629.77 201.344C1628.88 200.833 1628.21 200.208 1627.75 199.469C1627.29 198.719 1627.06 197.828 1627.06 196.797V196.781C1627.06 195.562 1627.38 194.505 1628.02 193.609C1628.66 192.714 1629.54 192.021 1630.64 191.531C1631.76 191.031 1633.01 190.781 1634.41 190.781C1635.75 190.781 1636.97 191.031 1638.05 191.531C1639.14 192.021 1640.02 192.714 1640.69 193.609C1641.36 194.495 1641.73 195.531 1641.8 196.719L1641.81 196.953H1639.1L1639.08 196.812C1639 196.062 1638.75 195.422 1638.33 194.891C1637.91 194.349 1637.37 193.938 1636.69 193.656C1636.02 193.365 1635.26 193.219 1634.41 193.219C1633.4 193.219 1632.55 193.385 1631.86 193.719C1631.17 194.052 1630.65 194.479 1630.3 195C1629.96 195.521 1629.78 196.068 1629.78 196.641V196.656C1629.78 197.167 1629.9 197.635 1630.13 198.062C1630.37 198.479 1630.75 198.854 1631.28 199.188C1631.82 199.51 1632.54 199.781 1633.44 200L1635.77 200.562C1637.78 201.042 1639.32 201.74 1640.41 202.656C1641.49 203.562 1642.03 204.839 1642.03 206.484V206.5C1642.03 207.844 1641.68 208.974 1640.97 209.891C1640.26 210.807 1639.33 211.5 1638.17 211.969C1637.02 212.438 1635.76 212.672 1634.41 212.672ZM1633.41 215.266V188.188H1635.28V215.266H1633.41Z" fill="#225CED"/>
<path d="M1152.05 275.672C1150.66 275.672 1149.39 275.432 1148.22 274.953C1147.06 274.464 1146.12 273.766 1145.39 272.859C1144.66 271.943 1144.25 270.854 1144.16 269.594L1144.14 269.375H1146.86L1146.89 269.562C1147.01 270.229 1147.25 270.844 1147.62 271.406C1148.01 271.958 1148.56 272.401 1149.28 272.734C1150 273.068 1150.93 273.234 1152.08 273.234C1153.26 273.234 1154.2 273.078 1154.91 272.766C1155.62 272.443 1156.15 272.01 1156.47 271.469C1156.79 270.927 1156.95 270.328 1156.95 269.672V269.656C1156.95 268.802 1156.68 268.094 1156.14 267.531C1155.6 266.969 1154.56 266.5 1153.02 266.125L1150.69 265.562C1149.4 265.25 1148.3 264.844 1147.41 264.344C1146.52 263.833 1145.85 263.208 1145.39 262.469C1144.93 261.719 1144.7 260.828 1144.7 259.797V259.781C1144.7 258.562 1145.02 257.505 1145.66 256.609C1146.3 255.714 1147.18 255.021 1148.28 254.531C1149.4 254.031 1150.65 253.781 1152.05 253.781C1153.39 253.781 1154.6 254.031 1155.69 254.531C1156.78 255.021 1157.66 255.714 1158.33 256.609C1158.99 257.495 1159.36 258.531 1159.44 259.719L1159.45 259.953H1156.73L1156.72 259.812C1156.64 259.062 1156.39 258.422 1155.97 257.891C1155.55 257.349 1155.01 256.938 1154.33 256.656C1153.66 256.365 1152.9 256.219 1152.05 256.219C1151.04 256.219 1150.19 256.385 1149.5 256.719C1148.81 257.052 1148.29 257.479 1147.94 258C1147.59 258.521 1147.42 259.068 1147.42 259.641V259.656C1147.42 260.167 1147.54 260.635 1147.77 261.062C1148.01 261.479 1148.39 261.854 1148.92 262.188C1149.46 262.51 1150.18 262.781 1151.08 263L1153.41 263.562C1155.42 264.042 1156.96 264.74 1158.05 265.656C1159.13 266.562 1159.67 267.839 1159.67 269.484V269.5C1159.67 270.844 1159.32 271.974 1158.61 272.891C1157.9 273.807 1156.97 274.5 1155.81 274.969C1154.66 275.438 1153.4 275.672 1152.05 275.672ZM1151.05 278.266V251.188H1152.92V278.266H1151.05Z" fill="#225CED"/>
<path d="M1132.05 275.672C1130.66 275.672 1129.39 275.432 1128.22 274.953C1127.06 274.464 1126.12 273.766 1125.39 272.859C1124.66 271.943 1124.25 270.854 1124.16 269.594L1124.14 269.375H1126.86L1126.89 269.562C1127.01 270.229 1127.25 270.844 1127.62 271.406C1128.01 271.958 1128.56 272.401 1129.28 272.734C1130 273.068 1130.93 273.234 1132.08 273.234C1133.26 273.234 1134.2 273.078 1134.91 272.766C1135.62 272.443 1136.15 272.01 1136.47 271.469C1136.79 270.927 1136.95 270.328 1136.95 269.672V269.656C1136.95 268.802 1136.68 268.094 1136.14 267.531C1135.6 266.969 1134.56 266.5 1133.02 266.125L1130.69 265.562C1129.4 265.25 1128.3 264.844 1127.41 264.344C1126.52 263.833 1125.85 263.208 1125.39 262.469C1124.93 261.719 1124.7 260.828 1124.7 259.797V259.781C1124.7 258.562 1125.02 257.505 1125.66 256.609C1126.3 255.714 1127.18 255.021 1128.28 254.531C1129.4 254.031 1130.65 253.781 1132.05 253.781C1133.39 253.781 1134.6 254.031 1135.69 254.531C1136.78 255.021 1137.66 255.714 1138.33 256.609C1138.99 257.495 1139.36 258.531 1139.44 259.719L1139.45 259.953H1136.73L1136.72 259.812C1136.64 259.062 1136.39 258.422 1135.97 257.891C1135.55 257.349 1135.01 256.938 1134.33 256.656C1133.66 256.365 1132.9 256.219 1132.05 256.219C1131.04 256.219 1130.19 256.385 1129.5 256.719C1128.81 257.052 1128.29 257.479 1127.94 258C1127.59 258.521 1127.42 259.068 1127.42 259.641V259.656C1127.42 260.167 1127.54 260.635 1127.77 261.062C1128.01 261.479 1128.39 261.854 1128.92 262.188C1129.46 262.51 1130.18 262.781 1131.08 263L1133.41 263.562C1135.42 264.042 1136.96 264.74 1138.05 265.656C1139.13 266.562 1139.67 267.839 1139.67 269.484V269.5C1139.67 270.844 1139.32 271.974 1138.61 272.891C1137.9 273.807 1136.97 274.5 1135.81 274.969C1134.66 275.438 1133.4 275.672 1132.05 275.672ZM1131.05 278.266V251.188H1132.92V278.266H1131.05Z" fill="#225CED"/>
<path d="M1080.12 293.165C1080.12 294.386 1079.64 295.509 1078.66 296.437L1046.19 328.81C1045.21 329.737 1044.19 330.177 1043.02 330.177C1040.62 330.177 1038.77 328.419 1038.77 325.978C1038.77 324.806 1039.16 323.634 1039.94 322.901L1050.88 311.769L1067.33 296.778L1055.52 297.511H993.748C991.209 297.511 989.451 295.704 989.451 293.165C989.451 290.626 991.209 288.819 993.748 288.819H1055.52L1067.28 289.552L1050.88 274.562L1039.94 263.429C1039.16 262.647 1038.77 261.524 1038.77 260.353C1038.77 257.911 1040.62 256.153 1043.02 256.153C1044.19 256.153 1045.21 256.544 1046.29 257.618L1078.66 289.894C1079.64 290.821 1080.12 291.944 1080.12 293.165Z" fill="#225CED"/>
<defs>
<clipPath id="clip0_423_34">
<rect width="569.8" height="451.06" fill="white" transform="translate(332 67)"/>
</clipPath>
</defs>
</svg>
